<?xml version="1.0" encoding="UTF-8" standalone="no"?>
<!-- Created with Inkscape (http://www.inkscape.org/) -->

<svg
   xmlns:dc="http://purl.org/dc/elements/1.1/"
   xmlns:cc="http://creativecommons.org/ns#"
   xmlns:rdf="http://www.w3.org/1999/02/22-rdf-syntax-ns#"
   xmlns:svg="http://www.w3.org/2000/svg"
   xmlns="http://www.w3.org/2000/svg"
   xmlns:sodipodi="http://sodipodi.sourceforge.net/DTD/sodipodi-0.dtd"
   xmlns:inkscape="http://www.inkscape.org/namespaces/inkscape"
   width="100"
   height="100"
   viewBox="0 0 99.999997 99.999997"
   id="svg2"
   version="1.1"
   inkscape:version="0.91 r13725"
   sodipodi:docname="circulartime.svg">
  <defs
     id="defs4" />
  <sodipodi:namedview
     id="base"
     pagecolor="#ffffff"
     bordercolor="#666666"
     borderopacity="1.0"
     inkscape:pageopacity="0.0"
     inkscape:pageshadow="2"
     inkscape:zoom="5.6"
     inkscape:cx="37.411009"
     inkscape:cy="62.884472"
     inkscape:document-units="px"
     inkscape:current-layer="layer1"
     showgrid="true"
     units="px"
     inkscape:snap-bbox="true"
     inkscape:bbox-nodes="true"
     inkscape:snap-bbox-midpoints="true"
     inkscape:snap-bbox-edge-midpoints="true">
    <inkscape:grid
       type="xygrid"
       id="grid8068"
       spacingx="0.99999997"
       spacingy="0.99999997"
       dotted="false"
       originx="0"
       color="#0101ff"
       opacity="0.1254902" />
  </sodipodi:namedview>
  <metadata
     id="metadata7">
    <rdf:RDF>
      <cc:Work
         rdf:about="">
        <dc:format>image/svg+xml</dc:format>
        <dc:type
           rdf:resource="http://purl.org/dc/dcmitype/StillImage" />
        <dc:title></dc:title>
      </cc:Work>
    </rdf:RDF>
  </metadata>
  <g
     inkscape:label="Layer 1"
     inkscape:groupmode="layer"
     id="layer1"
     transform="translate(0,-952.36223)">
    <path
       d="m 85.355338,967.00684 a 50,50 0 0 1 0.06398,70.64656 50,50 0 0 1 -70.64635,0.192 50,50 0 0 1 -0.319903,-70.64592 50,50 0 0 1 70.645191,-0.44786"
       sodipodi:end="5.490542"
       sodipodi:start="5.4977871"
       sodipodi:ry="50"
       sodipodi:rx="50"
       sodipodi:cy="1002.3622"
       sodipodi:cx="50"
       sodipodi:type="arc"
       id="path8180"
       style="opacity:1;fill:#a2d5b3;fill-opacity:1;stroke:none;stroke-width:0;stroke-linecap:butt;stroke-linejoin:round;stroke-miterlimit:4;stroke-dasharray:none;stroke-dashoffset:0;stroke-opacity:1"
       sodipodi:open="true" />
    <path
       d="m 49.979386,952.36219 a 50,50 0 0 1 35.277623,14.5466 L 50,1002.3622 Z"
       sodipodi:end="5.4950098"
       sodipodi:start="4.7119767"
       sodipodi:ry="50"
       sodipodi:rx="50"
       sodipodi:cy="1002.3622"
       sodipodi:cx="50"
       sodipodi:type="arc"
       id="path12677"
       style="opacity:1;fill:#3e8a57;fill-opacity:1;stroke:none;stroke-width:0;stroke-linecap:butt;stroke-linejoin:round;stroke-miterlimit:4;stroke-dasharray:none;stroke-dashoffset:0;stroke-opacity:1" />
    <path
       style="opacity:1;fill:#3e8a57;fill-opacity:1;stroke:none;stroke-width:0;stroke-linecap:butt;stroke-linejoin:round;stroke-miterlimit:4;stroke-dasharray:none;stroke-dashoffset:0;stroke-opacity:1"
       id="path8107"
       sodipodi:type="arc"
       sodipodi:cx="50"
       sodipodi:cy="1002.3622"
       sodipodi:rx="50"
       sodipodi:ry="50"
       sodipodi:start="0"
       sodipodi:end="3.7929483"
       d="m 100,1002.3622 a 50,50 0 0 1 -34.914762,47.6701 50,50 0 0 1 -55.982662,-18.9055 50,50 0 0 1 1.134292,-59.07787 L 50,1002.3622 Z" />
    <path
       d="m 85.271658,1037.801 a 50,50 0 0 1 -70.210765,0.3279 L 50,1002.3622 Z"
       sodipodi:end="2.3444899"
       sodipodi:start="0.78776223"
       sodipodi:ry="50"
       sodipodi:rx="50"
       sodipodi:cy="1002.3622"
       sodipodi:cx="50"
       sodipodi:type="arc"
       id="path12669"
       style="opacity:1;fill:#a2d5b3;fill-opacity:1;stroke:none;stroke-width:0;stroke-linecap:butt;stroke-linejoin:round;stroke-miterlimit:4;stroke-dasharray:none;stroke-dashoffset:0;stroke-opacity:1" />
    <path
       d="m 85.346652,1037.7262 a 50,50 0 0 1 -35.299686,14.636 l -0.04697,-50 z"
       sodipodi:end="1.569857"
       sodipodi:start="0.78564383"
       sodipodi:ry="50"
       sodipodi:rx="50"
       sodipodi:cy="1002.3622"
       sodipodi:cx="50"
       sodipodi:type="arc"
       id="path12683"
       style="opacity:1;fill:#6dbf89;fill-opacity:1;stroke:none;stroke-width:0;stroke-linecap:butt;stroke-linejoin:round;stroke-miterlimit:4;stroke-dasharray:none;stroke-dashoffset:0;stroke-opacity:1" />
    <path
       id="circle8171"
       style="opacity:1;fill:#6dbf89;fill-opacity:1;stroke:none;stroke-width:0;stroke-linecap:butt;stroke-linejoin:round;stroke-miterlimit:4;stroke-dasharray:none;stroke-dashoffset:0;stroke-opacity:1"
       sodipodi:type="arc"
       sodipodi:cx="50"
       sodipodi:cy="1002.3622"
       sodipodi:rx="34.999954"
       sodipodi:ry="34.999954"
       sodipodi:start="0"
       sodipodi:end="4.7192034"
       d="m 84.999954,1002.3622 a 34.999954,34.999954 0 0 1 -21.661158,32.3585 34.999954,34.999954 0 0 1 -38.171681,-7.6943 34.999954,34.999954 0 0 1 -7.433981,-38.22321 34.999954,34.999954 0 0 1 32.505369,-21.44015 L 50,1002.3622 Z" />
    <path
       d="M 24.817022,1028.0881 A 36.000053,36.000053 0 0 1 13.999999,1002.4239 L 50,1002.3622 Z"
       sodipodi:end="3.1398783"
       sodipodi:start="2.3455305"
       sodipodi:ry="36.000053"
       sodipodi:rx="36.000053"
       sodipodi:cy="1002.3622"
       sodipodi:cx="50"
       sodipodi:type="arc"
       style="opacity:1;fill:#3e8a57;fill-opacity:1;stroke:none;stroke-width:0;stroke-linecap:butt;stroke-linejoin:round;stroke-miterlimit:4;stroke-dasharray:none;stroke-dashoffset:0;stroke-opacity:1"
       id="path12681" />
    <path
       d="m 74.72744,1027.1321 a 34.999954,34.999954 0 0 1 -24.720362,10.23 L 50,1002.3622 Z"
       sodipodi:end="1.5705941"
       sodipodi:start="0.78625702"
       sodipodi:ry="34.999954"
       sodipodi:rx="34.999954"
       sodipodi:cy="1002.3622"
       sodipodi:cx="50"
       sodipodi:type="arc"
       style="opacity:1;fill:#a2d5b3;fill-opacity:1;stroke:none;stroke-width:0;stroke-linecap:butt;stroke-linejoin:round;stroke-miterlimit:4;stroke-dasharray:none;stroke-dashoffset:0;stroke-opacity:1"
       id="path12675" />
    <path
       d="m -50.00004,-1022.3621 a 19.999952,19.999952 0 0 1 19.618627,16.1129 19.999952,19.999952 0 0 1 -11.992767,22.37607 19.999952,19.999952 0 0 1 -24.280237,-7.41528 19.999952,19.999952 0 0 1 2.554995,-25.25839 L -50,-1002.3622 Z"
       sodipodi:end="3.9300042"
       sodipodi:start="4.712387"
       sodipodi:ry="19.999952"
       sodipodi:rx="19.999952"
       sodipodi:cy="-1002.3622"
       sodipodi:cx="-50"
       sodipodi:type="arc"
       style="opacity:1;fill:#3e8a57;fill-opacity:1;stroke:none;stroke-width:0;stroke-linecap:butt;stroke-linejoin:round;stroke-miterlimit:4;stroke-dasharray:none;stroke-dashoffset:0;stroke-opacity:1"
       id="path8178"
       transform="scale(-1,-1)" />
    <path
       transform="scale(-1,-1)"
       id="path12673"
       style="opacity:1;fill:#a2d5b3;fill-opacity:1;stroke:none;stroke-width:0;stroke-linecap:butt;stroke-linejoin:round;stroke-miterlimit:4;stroke-dasharray:none;stroke-dashoffset:0;stroke-opacity:1"
       sodipodi:type="arc"
       sodipodi:cx="-50"
       sodipodi:cy="-1002.3622"
       sodipodi:rx="5"
       sodipodi:ry="5"
       sodipodi:start="0"
       sodipodi:end="6.2549232"
       d="m -45,-1002.3622 a 5,5 0 0 1 -4.964673,4.99989 5,5 0 0 1 -5.034828,-4.92919 5,5 0 0 1 4.893526,-5.0696 5,5 0 0 1 5.103978,4.8576"
       sodipodi:open="true" />
    <path
       d="m 50.016318,967.36223 a 34.999954,34.999954 0 0 1 24.777694,10.29664 L 50,1002.3622 Z"
       sodipodi:end="5.4996195"
       sodipodi:start="4.7128552"
       sodipodi:ry="34.999954"
       sodipodi:rx="34.999954"
       sodipodi:cy="1002.3622"
       sodipodi:cx="50"
       sodipodi:type="arc"
       style="opacity:1;fill:#a2d5b3;fill-opacity:1;stroke:none;stroke-width:0;stroke-linecap:butt;stroke-linejoin:round;stroke-miterlimit:4;stroke-dasharray:none;stroke-dashoffset:0;stroke-opacity:1"
       id="path12679" />
  </g>
</svg>
