<?xml version="1.0" encoding="UTF-8" standalone="yes"?><svg xmlns="http://www.w3.org/2000/svg" xmlns:xlink="http://www.w3.org/1999/xlink" height="672px" style="width:814px;height:672px;" version="1.1" viewBox="0 0 814 672" width="814px"><defs/><g><line style="stroke: #383838; stroke-width: 1.0; stroke-dasharray: 5.0,5.0;" x1="39" x2="39" y1="51.5999" y2="625.4001"/><line style="stroke: #383838; stroke-width: 1.0; stroke-dasharray: 5.0,5.0;" x1="140" x2="140" y1="51.5999" y2="625.4001"/><line style="stroke: #383838; stroke-width: 1.0; stroke-dasharray: 5.0,5.0;" x1="273" x2="273" y1="51.5999" y2="625.4001"/><line style="stroke: #383838; stroke-width: 1.0; stroke-dasharray: 5.0,5.0;" x1="406.5" x2="406.5" y1="51.5999" y2="625.4001"/><line style="stroke: #383838; stroke-width: 1.0; stroke-dasharray: 5.0,5.0;" x1="556" x2="556" y1="51.5999" y2="625.4001"/><line style="stroke: #383838; stroke-width: 1.0; stroke-dasharray: 5.0,5.0;" x1="776" x2="776" y1="51.5999" y2="625.4001"/><rect fill="#F8F8F8" height="30.7999" style="stroke: #383838; stroke-width: 1.5;" width="63" x="8" y="19.7999"/><text fill="#000000" font-family="sans-serif" font-size="14" lengthAdjust="spacingAndGlyphs" textLength="49" x="15" y="40.7999">Angular</text><rect fill="#F8F8F8" height="30.7999" style="stroke: #383838; stroke-width: 1.5;" width="63" x="8" y="624.4001"/><text fill="#000000" font-family="sans-serif" font-size="14" lengthAdjust="spacingAndGlyphs" textLength="49" x="15" y="645.4">Angular</text><rect fill="#F8F8F8" height="47.5999" style="stroke: #383838; stroke-width: 1.5;" width="81" x="100" y="3"/><text fill="#000000" font-family="sans-serif" font-size="14" font-style="italic" lengthAdjust="spacingAndGlyphs" textLength="67" x="107" y="24">«Directive»</text><text fill="#000000" font-family="sans-serif" font-size="14" lengthAdjust="spacingAndGlyphs" textLength="39" x="121" y="40.7999">Panes</text><rect fill="#F8F8F8" height="47.5999" style="stroke: #383838; stroke-width: 1.5;" width="81" x="100" y="624.4001"/><text fill="#000000" font-family="sans-serif" font-size="14" font-style="italic" lengthAdjust="spacingAndGlyphs" textLength="67" x="107" y="645.4001">«Directive»</text><text fill="#000000" font-family="sans-serif" font-size="14" lengthAdjust="spacingAndGlyphs" textLength="39" x="121" y="662.2">Panes</text><rect fill="#F8F8F8" height="47.5999" style="stroke: #383838; stroke-width: 1.5;" width="87" x="230" y="3"/><text fill="#000000" font-family="sans-serif" font-size="14" font-style="italic" lengthAdjust="spacingAndGlyphs" textLength="67" x="240" y="24">«Directive»</text><text fill="#000000" font-family="sans-serif" font-size="14" lengthAdjust="spacingAndGlyphs" textLength="73" x="237" y="40.7999">ActionPanel</text><rect fill="#F8F8F8" height="47.5999" style="stroke: #383838; stroke-width: 1.5;" width="87" x="230" y="624.4001"/><text fill="#000000" font-family="sans-serif" font-size="14" font-style="italic" lengthAdjust="spacingAndGlyphs" textLength="67" x="240" y="645.4001">«Directive»</text><text fill="#000000" font-family="sans-serif" font-size="14" lengthAdjust="spacingAndGlyphs" textLength="73" x="237" y="662.2">ActionPanel</text><rect fill="#F8F8F8" height="47.5999" style="stroke: #383838; stroke-width: 1.5;" width="104" x="354.5" y="3"/><text fill="#000000" font-family="sans-serif" font-size="14" font-style="italic" lengthAdjust="spacingAndGlyphs" textLength="59" x="377" y="24">«Factory»</text><text fill="#000000" font-family="sans-serif" font-size="14" lengthAdjust="spacingAndGlyphs" textLength="90" x="361.5" y="40.7999">...Visualization</text><rect fill="#F8F8F8" height="47.5999" style="stroke: #383838; stroke-width: 1.5;" width="104" x="354.5" y="624.4001"/><text fill="#000000" font-family="sans-serif" font-size="14" font-style="italic" lengthAdjust="spacingAndGlyphs" textLength="59" x="377" y="645.4001">«Factory»</text><text fill="#000000" font-family="sans-serif" font-size="14" lengthAdjust="spacingAndGlyphs" textLength="90" x="361.5" y="662.2">...Visualization</text><rect fill="#F8F8F8" height="47.5999" style="stroke: #383838; stroke-width: 1.5;" width="73" x="520" y="3"/><text fill="#000000" font-family="sans-serif" font-size="14" font-style="italic" lengthAdjust="spacingAndGlyphs" textLength="59" x="527" y="24">«Factory»</text><text fill="#000000" font-family="sans-serif" font-size="14" lengthAdjust="spacingAndGlyphs" textLength="37" x="538" y="40.7999">Filters</text><rect fill="#F8F8F8" height="47.5999" style="stroke: #383838; stroke-width: 1.5;" width="73" x="520" y="624.4001"/><text fill="#000000" font-family="sans-serif" font-size="14" font-style="italic" lengthAdjust="spacingAndGlyphs" textLength="59" x="527" y="645.4001">«Factory»</text><text fill="#000000" font-family="sans-serif" font-size="14" lengthAdjust="spacingAndGlyphs" textLength="37" x="538" y="662.2">Filters</text><rect fill="#F8F8F8" height="47.5999" style="stroke: #383838; stroke-width: 1.5;" width="73" x="740" y="3"/><text fill="#000000" font-family="sans-serif" font-size="14" font-style="italic" lengthAdjust="spacingAndGlyphs" textLength="59" x="747" y="24">«Factory»</text><text fill="#000000" font-family="sans-serif" font-size="14" lengthAdjust="spacingAndGlyphs" textLength="58" x="747.5" y="40.7999">Providers</text><rect fill="#F8F8F8" height="47.5999" style="stroke: #383838; stroke-width: 1.5;" width="73" x="740" y="624.4001"/><text fill="#000000" font-family="sans-serif" font-size="14" font-style="italic" lengthAdjust="spacingAndGlyphs" textLength="59" x="747" y="645.4001">«Factory»</text><text fill="#000000" font-family="sans-serif" font-size="14" lengthAdjust="spacingAndGlyphs" textLength="58" x="747.5" y="662.2">Providers</text><polygon fill="#383838" points="128.5,78.5999,138.5,82.5999,128.5,86.5999,132.5,82.5999" style="stroke: #383838; stroke-width: 1.0;"/><line style="stroke: #383838; stroke-width: 1.0;" x1="39.5" x2="134.5" y1="82.5999" y2="82.5999"/><text fill="#000000" font-family="sans-serif" font-size="13" lengthAdjust="spacingAndGlyphs" textLength="77" x="46.5" y="78.5999">updateLayout</text><polygon fill="#383838" points="261.5,108.1999,271.5,112.1999,261.5,116.1999,265.5,112.1999" style="stroke: #383838; stroke-width: 1.0;"/><line style="stroke: #383838; stroke-width: 1.0;" x1="140.5" x2="267.5" y1="112.1999" y2="112.1999"/><text fill="#000000" font-family="sans-serif" font-size="13" lengthAdjust="spacingAndGlyphs" textLength="109" x="147.5" y="108.1999">updateActionPanel</text><line style="stroke: #383838; stroke-width: 1.0;" x1="273.5" x2="315.5" y1="142.3999" y2="142.3999"/><line style="stroke: #383838; stroke-width: 1.0;" x1="315.5" x2="315.5" y1="142.3999" y2="155.3999"/><line style="stroke: #383838; stroke-width: 1.0;" x1="274.5" x2="315.5" y1="155.3999" y2="155.3999"/><polygon fill="#383838" points="284.5,151.3999,274.5,155.3999,284.5,159.3999,280.5,155.3999" style="stroke: #383838; stroke-width: 1.0;"/><text fill="#000000" font-family="sans-serif" font-size="13" lengthAdjust="spacingAndGlyphs" textLength="119" x="280.5" y="137.7999">updateFilterListeners</text><polygon fill="#383838" points="394.5,180.3999,404.5,184.3999,394.5,188.3999,398.5,184.3999" style="stroke: #383838; stroke-width: 1.0;"/><line style="stroke: #383838; stroke-width: 1.0;" x1="273.5" x2="400.5" y1="184.3999" y2="184.3999"/><text fill="#000000" font-family="sans-serif" font-size="13" lengthAdjust="spacingAndGlyphs" textLength="39" x="280.5" y="180.3999">update</text><line style="stroke: #383838; stroke-width: 1.0;" x1="406.5" x2="448.5" y1="214.5999" y2="214.5999"/><line style="stroke: #383838; stroke-width: 1.0;" x1="448.5" x2="448.5" y1="214.5999" y2="227.5999"/><line style="stroke: #383838; stroke-width: 1.0;" x1="407.5" x2="448.5" y1="227.5999" y2="227.5999"/><polygon fill="#383838" points="417.5,223.5999,407.5,227.5999,417.5,231.5999,413.5,227.5999" style="stroke: #383838; stroke-width: 1.0;"/><text fill="#000000" font-family="sans-serif" font-size="13" lengthAdjust="spacingAndGlyphs" textLength="67" x="413.5" y="209.9999">makeFilters</text><polygon fill="#383838" points="544.5,278.9999,554.5,282.9999,544.5,286.9999,548.5,282.9999" style="stroke: #383838; stroke-width: 1.0;"/><line style="stroke: #383838; stroke-width: 1.0;" x1="406.5" x2="550.5" y1="282.9999" y2="282.9999"/><text fill="#000000" font-family="sans-serif" font-size="13" lengthAdjust="spacingAndGlyphs" textLength="126" x="413.5" y="279">addFiltersFromNames</text><polygon fill="#ECECEC" points="198,240.5999,198,312.5999,401,312.5999,401,250.5999,391,240.5999,198,240.5999" style="stroke: #383838; stroke-width: 1.0;"/><line style="stroke: #383838; stroke-width: 1.0;" x1="391" x2="391" y1="240.5999" y2="250.5999"/><line style="stroke: #383838; stroke-width: 1.0;" x1="401" x2="391" y1="250.5999" y2="250.5999"/><text fill="#000000" font-family="sans-serif" font-size="13" lengthAdjust="spacingAndGlyphs" textLength="64" x="204" y="258.5999">State used:</text><text fill="#000000" font-family="sans-serif" font-size="13" lengthAdjust="spacingAndGlyphs" textLength="106" x="204" y="274.1999">- filters.filterNames</text><text fill="#000000" font-family="sans-serif" font-size="13" lengthAdjust="spacingAndGlyphs" textLength="182" x="204" y="289.8">- ...Visualization.expectedNames</text><text fill="#000000" font-family="sans-serif" font-size="13" lengthAdjust="spacingAndGlyphs" textLength="72" x="204" y="305.4">- filters.filters</text><line style="stroke: #383838; stroke-width: 1.0;" x1="406.5" x2="448.5" y1="339.6" y2="339.6"/><line style="stroke: #383838; stroke-width: 1.0;" x1="448.5" x2="448.5" y1="339.6" y2="352.6"/><line style="stroke: #383838; stroke-width: 1.0;" x1="407.5" x2="448.5" y1="352.6" y2="352.6"/><polygon fill="#383838" points="417.5,348.6,407.5,352.6,417.5,356.6,413.5,352.6" style="stroke: #383838; stroke-width: 1.0;"/><text fill="#000000" font-family="sans-serif" font-size="13" lengthAdjust="spacingAndGlyphs" textLength="110" x="413.5" y="335">populateWithFilters</text><line style="stroke: #383838; stroke-width: 1.0;" x1="406.5" x2="448.5" y1="382.2" y2="382.2"/><line style="stroke: #383838; stroke-width: 1.0;" x1="448.5" x2="448.5" y1="382.2" y2="395.2"/><line style="stroke: #383838; stroke-width: 1.0;" x1="407.5" x2="448.5" y1="395.2" y2="395.2"/><polygon fill="#383838" points="417.5,391.2,407.5,395.2,417.5,399.2,413.5,395.2" style="stroke: #383838; stroke-width: 1.0;"/><text fill="#000000" font-family="sans-serif" font-size="13" lengthAdjust="spacingAndGlyphs" textLength="49" x="413.5" y="377.6">populate</text><polygon fill="#383838" points="544.5,420.2,554.5,424.2,544.5,428.2,548.5,424.2" style="stroke: #383838; stroke-width: 1.0;"/><line style="stroke: #383838; stroke-width: 1.0;" x1="273.5" x2="550.5" y1="424.2" y2="424.2"/><text fill="#000000" font-family="sans-serif" font-size="13" lengthAdjust="spacingAndGlyphs" textLength="32" x="280.5" y="420.2">make</text><line style="stroke: #383838; stroke-width: 1.0;" x1="556.5" x2="598.5" y1="454.4" y2="454.4"/><line style="stroke: #383838; stroke-width: 1.0;" x1="598.5" x2="598.5" y1="454.4" y2="467.4"/><line style="stroke: #383838; stroke-width: 1.0;" x1="557.5" x2="598.5" y1="467.4" y2="467.4"/><polygon fill="#383838" points="567.5,463.4,557.5,467.4,567.5,471.4,563.5,467.4" style="stroke: #383838; stroke-width: 1.0;"/><text fill="#000000" font-family="sans-serif" font-size="13" lengthAdjust="spacingAndGlyphs" textLength="195" x="563.5" y="449.8">makeFilter... &lt;&lt; Concrete Filter &gt;&gt;</text><polygon fill="#383838" points="764.5,492.4,774.5,496.4,764.5,500.4,768.5,496.4" style="stroke: #383838; stroke-width: 1.0;"/><line style="stroke: #383838; stroke-width: 1.0;" x1="556.5" x2="770.5" y1="496.4" y2="496.4"/><text fill="#000000" font-family="sans-serif" font-size="13" lengthAdjust="spacingAndGlyphs" textLength="51" x="563.5" y="492.4">retrieve...</text><polygon fill="#383838" points="567.5,522,557.5,526,567.5,530,563.5,526" style="stroke: #383838; stroke-width: 1.0;"/><line style="stroke: #383838; stroke-width: 1.0; stroke-dasharray: 2.0,2.0;" x1="561.5" x2="775.5" y1="526" y2="526"/><text fill="#000000" font-family="sans-serif" font-size="13" lengthAdjust="spacingAndGlyphs" textLength="51" x="573.5" y="522.0001">retrieve...</text><line style="stroke: #383838; stroke-width: 1.0;" x1="556.5" x2="598.5" y1="560.5001" y2="560.5001"/><line style="stroke: #383838; stroke-width: 1.0;" x1="598.5" x2="598.5" y1="560.5001" y2="573.5001"/><line style="stroke: #383838; stroke-width: 1.0;" x1="557.5" x2="598.5" y1="573.5001" y2="573.5001"/><polygon fill="#383838" points="567.5,569.5001,557.5,573.5001,567.5,577.5001,563.5,573.5001" style="stroke: #383838; stroke-width: 1.0;"/><text fill="#000000" font-family="sans-serif" font-size="13" lengthAdjust="spacingAndGlyphs" textLength="206" x="563.5" y="555.9001">makeFilter... &lt;&lt; Concrete Widget &gt;&gt;</text><polygon fill="#ECECEC" points="405,539.6001,405,580.6001,551,580.6001,551,549.6001,541,539.6001,405,539.6001" style="stroke: #383838; stroke-width: 1.0;"/><line style="stroke: #383838; stroke-width: 1.0;" x1="541" x2="541" y1="539.6001" y2="549.6001"/><line style="stroke: #383838; stroke-width: 1.0;" x1="551" x2="541" y1="549.6001" y2="549.6001"/><text fill="#000000" font-family="sans-serif" font-size="13" lengthAdjust="spacingAndGlyphs" textLength="81" x="411" y="557.6001">Update widget</text><text fill="#000000" font-family="sans-serif" font-size="13" lengthAdjust="spacingAndGlyphs" textLength="125" x="411" y="573.2001">in ActionPanel's DOM</text><polygon fill="#383838" points="284.5,602.8001,274.5,606.8001,284.5,610.8001,280.5,606.8001" style="stroke: #383838; stroke-width: 1.0;"/><line style="stroke: #383838; stroke-width: 1.0; stroke-dasharray: 2.0,2.0;" x1="278.5" x2="555.5" y1="606.8001" y2="606.8001"/><text fill="#000000" font-family="sans-serif" font-size="13" lengthAdjust="spacingAndGlyphs" textLength="32" x="290.5" y="602.8001">make</text></g></svg>