<?xml version="1.0" encoding="UTF-8" standalone="yes"?><svg xmlns="http://www.w3.org/2000/svg" xmlns:xlink="http://www.w3.org/1999/xlink" height="701px" style="width:667px;height:701px;" version="1.1" viewBox="0 0 667 701" width="667px"><defs/><g><rect fill="#FFFFFF" height="202.2001" style="stroke: #000000; stroke-width: 2.0;" width="633.5" x="33" y="265.8"/><rect fill="#FFFFFF" height="111.4001" style="stroke: #000000; stroke-width: 2.0;" width="549.5" x="43" y="349.6"/><rect fill="#FFFFFF" height="125.4001" style="stroke: #000000; stroke-width: 2.0;" width="540.5" x="43" y="482.0001"/><line style="stroke: #383838; stroke-width: 1.0; stroke-dasharray: 5.0,5.0;" x1="25" x2="25" y1="82.7999" y2="624.4001"/><line style="stroke: #383838; stroke-width: 1.0; stroke-dasharray: 5.0,5.0;" x1="93" x2="93" y1="82.7999" y2="624.4001"/><line style="stroke: #383838; stroke-width: 1.0; stroke-dasharray: 5.0,5.0;" x1="315" x2="315" y1="82.7999" y2="624.4001"/><line style="stroke: #383838; stroke-width: 1.0; stroke-dasharray: 5.0,5.0;" x1="438.5" x2="438.5" y1="82.7999" y2="624.4001"/><line style="stroke: #383838; stroke-width: 1.0; stroke-dasharray: 5.0,5.0;" x1="536.5" x2="536.5" y1="82.7999" y2="624.4001"/><line style="stroke: #383838; stroke-width: 1.0; stroke-dasharray: 5.0,5.0;" x1="619.5" x2="619.5" y1="82.7999" y2="624.4001"/><text fill="#000000" font-family="sans-serif" font-size="14" lengthAdjust="spacingAndGlyphs" textLength="29" x="8" y="79.9999">User</text><ellipse cx="25.5" cy="13" fill="#F8F8F8" rx="8" ry="8" style="stroke: #383838; stroke-width: 2.0;"/><path d="M25.5,21 L25.5,48 M12.5,29 L38.5,29 M25.5,48 L12.5,63 M25.5,48 L38.5,63 " fill="#F8F8F8" style="stroke: #383838; stroke-width: 2.0;"/><text fill="#000000" font-family="sans-serif" font-size="14" lengthAdjust="spacingAndGlyphs" textLength="29" x="8" y="637.4001">User</text><ellipse cx="25.5" cy="650.2001" fill="#F8F8F8" rx="8" ry="8" style="stroke: #383838; stroke-width: 2.0;"/><path d="M25.5,658.2001 L25.5,685.2001 M12.5,666.2001 L38.5,666.2001 M25.5,685.2001 L12.5,700.2001 M25.5,685.2001 L38.5,700.2001 " fill="#F8F8F8" style="stroke: #383838; stroke-width: 2.0;"/><rect fill="#F8F8F8" height="47.5999" style="stroke: #383838; stroke-width: 1.5;" width="81" x="53" y="34.2001"/><text fill="#000000" font-family="sans-serif" font-size="14" font-style="italic" lengthAdjust="spacingAndGlyphs" textLength="67" x="60" y="55.2001">«Directive»</text><text fill="#000000" font-family="sans-serif" font-size="14" lengthAdjust="spacingAndGlyphs" textLength="39" x="74" y="72">Panes</text><rect fill="#F8F8F8" height="47.5999" style="stroke: #383838; stroke-width: 1.5;" width="81" x="53" y="623.4001"/><text fill="#000000" font-family="sans-serif" font-size="14" font-style="italic" lengthAdjust="spacingAndGlyphs" textLength="67" x="60" y="644.4001">«Directive»</text><text fill="#000000" font-family="sans-serif" font-size="14" lengthAdjust="spacingAndGlyphs" textLength="39" x="74" y="661.2001">Panes</text><rect fill="#F8F8F8" height="47.5999" style="stroke: #383838; stroke-width: 1.5;" width="87" x="272" y="34.2001"/><text fill="#000000" font-family="sans-serif" font-size="14" font-style="italic" lengthAdjust="spacingAndGlyphs" textLength="67" x="282" y="55.2001">«Directive»</text><text fill="#000000" font-family="sans-serif" font-size="14" lengthAdjust="spacingAndGlyphs" textLength="73" x="279" y="72">ActionPanel</text><rect fill="#F8F8F8" height="47.5999" style="stroke: #383838; stroke-width: 1.5;" width="87" x="272" y="623.4001"/><text fill="#000000" font-family="sans-serif" font-size="14" font-style="italic" lengthAdjust="spacingAndGlyphs" textLength="67" x="282" y="644.4001">«Directive»</text><text fill="#000000" font-family="sans-serif" font-size="14" lengthAdjust="spacingAndGlyphs" textLength="73" x="279" y="661.2001">ActionPanel</text><rect fill="#F8F8F8" height="47.5999" style="stroke: #383838; stroke-width: 1.5;" width="104" x="386.5" y="34.2001"/><text fill="#000000" font-family="sans-serif" font-size="14" font-style="italic" lengthAdjust="spacingAndGlyphs" textLength="59" x="409" y="55.2001">«Factory»</text><text fill="#000000" font-family="sans-serif" font-size="14" lengthAdjust="spacingAndGlyphs" textLength="90" x="393.5" y="72">...Visualization</text><rect fill="#F8F8F8" height="47.5999" style="stroke: #383838; stroke-width: 1.5;" width="104" x="386.5" y="623.4001"/><text fill="#000000" font-family="sans-serif" font-size="14" font-style="italic" lengthAdjust="spacingAndGlyphs" textLength="59" x="409" y="644.4001">«Factory»</text><text fill="#000000" font-family="sans-serif" font-size="14" lengthAdjust="spacingAndGlyphs" textLength="90" x="393.5" y="661.2001">...Visualization</text><rect fill="#F8F8F8" height="47.5999" style="stroke: #383838; stroke-width: 1.5;" width="73" x="500.5" y="34.2001"/><text fill="#000000" font-family="sans-serif" font-size="14" font-style="italic" lengthAdjust="spacingAndGlyphs" textLength="59" x="507.5" y="55.2001">«Factory»</text><text fill="#000000" font-family="sans-serif" font-size="14" lengthAdjust="spacingAndGlyphs" textLength="50" x="512" y="72">Widgets</text><rect fill="#F8F8F8" height="47.5999" style="stroke: #383838; stroke-width: 1.5;" width="73" x="500.5" y="623.4001"/><text fill="#000000" font-family="sans-serif" font-size="14" font-style="italic" lengthAdjust="spacingAndGlyphs" textLength="59" x="507.5" y="644.4001">«Factory»</text><text fill="#000000" font-family="sans-serif" font-size="14" lengthAdjust="spacingAndGlyphs" textLength="50" x="512" y="661.2001">Widgets</text><rect fill="#F8F8F8" height="47.5999" style="stroke: #383838; stroke-width: 1.5;" width="73" x="583.5" y="34.2001"/><text fill="#000000" font-family="sans-serif" font-size="14" font-style="italic" lengthAdjust="spacingAndGlyphs" textLength="59" x="590.5" y="55.2001">«Factory»</text><text fill="#000000" font-family="sans-serif" font-size="14" lengthAdjust="spacingAndGlyphs" textLength="39" x="600.5" y="72">Nodes</text><rect fill="#F8F8F8" height="47.5999" style="stroke: #383838; stroke-width: 1.5;" width="73" x="583.5" y="623.4001"/><text fill="#000000" font-family="sans-serif" font-size="14" font-style="italic" lengthAdjust="spacingAndGlyphs" textLength="59" x="590.5" y="644.4001">«Factory»</text><text fill="#000000" font-family="sans-serif" font-size="14" lengthAdjust="spacingAndGlyphs" textLength="39" x="600.5" y="661.2001">Nodes</text><polygon fill="#383838" points="303.5,120.5999,313.5,124.5999,303.5,128.5999,307.5,124.5999" style="stroke: #383838; stroke-width: 1.0;"/><line style="stroke: #383838; stroke-width: 1.0;" x1="25.5" x2="309.5" y1="124.5999" y2="124.5999"/><text fill="#000000" font-family="sans-serif" font-size="13" lengthAdjust="spacingAndGlyphs" textLength="50" x="32.5" y="120.5999">choose...</text><polygon fill="#ECECEC" points="320,97.7999,320,138.7999,466,138.7999,466,107.7999,456,97.7999,320,97.7999" style="stroke: #383838; stroke-width: 1.0;"/><line style="stroke: #383838; stroke-width: 1.0;" x1="456" x2="456" y1="97.7999" y2="107.7999"/><line style="stroke: #383838; stroke-width: 1.0;" x1="466" x2="456" y1="107.7999" y2="107.7999"/><text fill="#000000" font-family="sans-serif" font-size="13" lengthAdjust="spacingAndGlyphs" textLength="125" x="326" y="115.7999">Selects a visualization</text><text fill="#000000" font-family="sans-serif" font-size="13" lengthAdjust="spacingAndGlyphs" textLength="79" x="326" y="131.4">for a new view</text><polygon fill="#383838" points="104.5,161,94.5,165,104.5,169,100.5,165" style="stroke: #383838; stroke-width: 1.0;"/><line style="stroke: #383838; stroke-width: 1.0;" x1="98.5" x2="314.5" y1="165" y2="165"/><text fill="#000000" font-family="sans-serif" font-size="13" lengthAdjust="spacingAndGlyphs" textLength="88" x="110.5" y="161">makePaneSplit</text><line style="stroke: #383838; stroke-width: 1.0;" x1="93.5" x2="135.5" y1="195.2" y2="195.2"/><line style="stroke: #383838; stroke-width: 1.0;" x1="135.5" x2="135.5" y1="195.2" y2="208.2"/><line style="stroke: #383838; stroke-width: 1.0;" x1="94.5" x2="135.5" y1="208.2" y2="208.2"/><polygon fill="#383838" points="104.5,204.2,94.5,208.2,104.5,212.2,100.5,208.2" style="stroke: #383838; stroke-width: 1.0;"/><text fill="#000000" font-family="sans-serif" font-size="13" lengthAdjust="spacingAndGlyphs" textLength="74" x="100.5" y="190.6">paneColapse</text><line style="stroke: #383838; stroke-width: 1.0;" x1="93.5" x2="135.5" y1="237.8" y2="237.8"/><line style="stroke: #383838; stroke-width: 1.0;" x1="135.5" x2="135.5" y1="237.8" y2="250.8"/><line style="stroke: #383838; stroke-width: 1.0;" x1="94.5" x2="135.5" y1="250.8" y2="250.8"/><polygon fill="#383838" points="104.5,246.8,94.5,250.8,104.5,254.8,100.5,250.8" style="stroke: #383838; stroke-width: 1.0;"/><text fill="#000000" font-family="sans-serif" font-size="13" lengthAdjust="spacingAndGlyphs" textLength="77" x="100.5" y="233.2">updateLayout</text><rect fill="none" height="202.2001" style="stroke: #000000; stroke-width: 2.0;" width="633.5" x="33" y="265.8"/><polygon fill="#EEEEEE" points="33,265.8,145,265.8,145,272.8,135,282.8,33,282.8,33,265.8" style="stroke: #000000; stroke-width: 2.0;"/><text fill="#000000" font-family="sans-serif" font-size="13" font-weight="bold" lengthAdjust="spacingAndGlyphs" textLength="67" x="48" y="279.8">make view</text><polygon fill="#383838" points="608,300.4,618,304.4,608,308.4,612,304.4" style="stroke: #383838; stroke-width: 1.0;"/><line style="stroke: #383838; stroke-width: 1.0;" x1="93.5" x2="614" y1="304.4" y2="304.4"/><text fill="#000000" font-family="sans-serif" font-size="13" lengthAdjust="spacingAndGlyphs" textLength="26" x="100.5" y="300.4">walk</text><polygon fill="#383838" points="104.5,330,94.5,334,104.5,338,100.5,334" style="stroke: #383838; stroke-width: 1.0;"/><line style="stroke: #383838; stroke-width: 1.0; stroke-dasharray: 2.0,2.0;" x1="98.5" x2="619" y1="334" y2="334"/><text fill="#000000" font-family="sans-serif" font-size="13" lengthAdjust="spacingAndGlyphs" textLength="26" x="110.5" y="330">walk</text><rect fill="none" height="111.4001" style="stroke: #000000; stroke-width: 2.0;" width="549.5" x="43" y="349.6"/><polygon fill="#EEEEEE" points="43,349.6,116,349.6,116,356.6,106,366.6,43,366.6,43,349.6" style="stroke: #000000; stroke-width: 2.0;"/><text fill="#000000" font-family="sans-serif" font-size="13" font-weight="bold" lengthAdjust="spacingAndGlyphs" textLength="28" x="58" y="363.6">loop</text><text fill="#000000" font-family="sans-serif" font-size="11" font-weight="bold" lengthAdjust="spacingAndGlyphs" textLength="78" x="131" y="362.6">[foreach node]</text><line style="stroke: #383838; stroke-width: 1.0;" x1="93.5" x2="135.5" y1="388.8001" y2="388.8001"/><line style="stroke: #383838; stroke-width: 1.0;" x1="135.5" x2="135.5" y1="388.8001" y2="401.8001"/><line style="stroke: #383838; stroke-width: 1.0;" x1="94.5" x2="135.5" y1="401.8001" y2="401.8001"/><polygon fill="#383838" points="104.5,397.8001,94.5,401.8001,104.5,405.8001,100.5,401.8001" style="stroke: #383838; stroke-width: 1.0;"/><text fill="#000000" font-family="sans-serif" font-size="13" lengthAdjust="spacingAndGlyphs" textLength="208" x="100.5" y="384.2001">make... &lt;&lt; Concrete Visualization &gt;&gt;</text><polygon fill="#383838" points="426.5,437.6001,436.5,441.6001,426.5,445.6001,430.5,441.6001" style="stroke: #383838; stroke-width: 1.0;"/><line style="stroke: #383838; stroke-width: 1.0;" x1="93.5" x2="432.5" y1="441.6001" y2="441.6001"/><text fill="#000000" font-family="sans-serif" font-size="13" lengthAdjust="spacingAndGlyphs" textLength="85" x="100.5" y="437.6001">make / remake</text><polygon fill="#ECECEC" points="443,414.8001,443,455.8001,577,455.8001,577,424.8001,567,414.8001,443,414.8001" style="stroke: #383838; stroke-width: 1.0;"/><line style="stroke: #383838; stroke-width: 1.0;" x1="567" x2="567" y1="414.8001" y2="424.8001"/><line style="stroke: #383838; stroke-width: 1.0;" x1="577" x2="567" y1="424.8001" y2="424.8001"/><text fill="#000000" font-family="sans-serif" font-size="13" lengthAdjust="spacingAndGlyphs" textLength="113" x="449" y="432.8001">Update visualization</text><text fill="#000000" font-family="sans-serif" font-size="13" lengthAdjust="spacingAndGlyphs" textLength="106" x="449" y="448.4001">in new view's DOM</text><rect fill="none" height="125.4001" style="stroke: #000000; stroke-width: 2.0;" width="540.5" x="43" y="482.0001"/><polygon fill="#EEEEEE" points="43,482.0001,161,482.0001,161,489.0001,151,499.0001,43,499.0001,43,482.0001" style="stroke: #000000; stroke-width: 2.0;"/><text fill="#000000" font-family="sans-serif" font-size="13" font-weight="bold" lengthAdjust="spacingAndGlyphs" textLength="73" x="58" y="496.0001">make panel</text><polygon fill="#383838" points="303.5,519.6001,313.5,523.6001,303.5,527.6001,307.5,523.6001" style="stroke: #383838; stroke-width: 1.0;"/><line style="stroke: #383838; stroke-width: 1.0;" x1="93.5" x2="309.5" y1="523.6001" y2="523.6001"/><text fill="#000000" font-family="sans-serif" font-size="13" lengthAdjust="spacingAndGlyphs" textLength="116" x="100.5" y="519.6001">makeDefaultActions</text><polygon fill="#ECECEC" points="320,504.6001,320,529.6001,508,529.6001,508,514.6001,498,504.6001,320,504.6001" style="stroke: #383838; stroke-width: 1.0;"/><line style="stroke: #383838; stroke-width: 1.0;" x1="498" x2="498" y1="504.6001" y2="514.6001"/><line style="stroke: #383838; stroke-width: 1.0;" x1="508" x2="498" y1="514.6001" y2="514.6001"/><text fill="#000000" font-family="sans-serif" font-size="13" lengthAdjust="spacingAndGlyphs" textLength="167" x="326" y="522.6001">Updates attributes for widgets</text><polygon fill="#383838" points="525,552.2001,535,556.2001,525,560.2001,529,556.2001" style="stroke: #383838; stroke-width: 1.0;"/><line style="stroke: #383838; stroke-width: 1.0;" x1="315.5" x2="531" y1="556.2001" y2="556.2001"/><text fill="#000000" font-family="sans-serif" font-size="13" lengthAdjust="spacingAndGlyphs" textLength="177" x="322.5" y="552.2001">make... &lt;&lt; Concrete Widget &gt;&gt;</text><line style="stroke: #383838; stroke-width: 1.0;" x1="315.5" x2="357.5" y1="586.4001" y2="586.4001"/><line style="stroke: #383838; stroke-width: 1.0;" x1="357.5" x2="357.5" y1="586.4001" y2="599.4001"/><line style="stroke: #383838; stroke-width: 1.0;" x1="316.5" x2="357.5" y1="599.4001" y2="599.4001"/><polygon fill="#383838" points="326.5,595.4001,316.5,599.4001,326.5,603.4001,322.5,599.4001" style="stroke: #383838; stroke-width: 1.0;"/><text fill="#000000" font-family="sans-serif" font-size="13" lengthAdjust="spacingAndGlyphs" textLength="109" x="322.5" y="581.8001">updateActionPanel</text></g></svg>