<?xml version="1.0" encoding="UTF-8" standalone="yes"?><svg xmlns="http://www.w3.org/2000/svg" xmlns:xlink="http://www.w3.org/1999/xlink" height="833px" style="width:486px;height:833px;" version="1.1" viewBox="0 0 486 833" width="486px"><defs/><g><rect fill="#FFFFFF" height="291.8001" style="stroke: #000000; stroke-width: 2.0;" width="355.5" x="13" y="99.7999"/><rect fill="#FFFFFF" height="334.4001" style="stroke: #000000; stroke-width: 2.0;" width="472.5" x="13" y="405.6"/><line style="stroke: #383838; stroke-width: 1.0;" x1="40" x2="40" y1="82.7999" y2="363.6"/><line style="stroke: #383838; stroke-width: 1.0; stroke-dasharray: 1.0,4.0;" x1="40" x2="40" y1="363.6" y2="391.6"/><line style="stroke: #383838; stroke-width: 1.0;" x1="40" x2="40" y1="391.6" y2="712.0002"/><line style="stroke: #383838; stroke-width: 1.0; stroke-dasharray: 1.0,4.0;" x1="40" x2="40" y1="712.0002" y2="740.0002"/><line style="stroke: #383838; stroke-width: 1.0;" x1="40" x2="40" y1="740.0002" y2="757.0002"/><line style="stroke: #383838; stroke-width: 1.0;" x1="108" x2="108" y1="82.7999" y2="363.6"/><line style="stroke: #383838; stroke-width: 1.0; stroke-dasharray: 1.0,4.0;" x1="108" x2="108" y1="363.6" y2="391.6"/><line style="stroke: #383838; stroke-width: 1.0;" x1="108" x2="108" y1="391.6" y2="712.0002"/><line style="stroke: #383838; stroke-width: 1.0; stroke-dasharray: 1.0,4.0;" x1="108" x2="108" y1="712.0002" y2="740.0002"/><line style="stroke: #383838; stroke-width: 1.0;" x1="108" x2="108" y1="740.0002" y2="757.0002"/><line style="stroke: #383838; stroke-width: 1.0;" x1="275" x2="275" y1="82.7999" y2="363.6"/><line style="stroke: #383838; stroke-width: 1.0; stroke-dasharray: 1.0,4.0;" x1="275" x2="275" y1="363.6" y2="391.6"/><line style="stroke: #383838; stroke-width: 1.0;" x1="275" x2="275" y1="391.6" y2="712.0002"/><line style="stroke: #383838; stroke-width: 1.0; stroke-dasharray: 1.0,4.0;" x1="275" x2="275" y1="712.0002" y2="740.0002"/><line style="stroke: #383838; stroke-width: 1.0;" x1="275" x2="275" y1="740.0002" y2="757.0002"/><text fill="#000000" font-family="sans-serif" font-size="14" lengthAdjust="spacingAndGlyphs" textLength="29" x="23" y="79.9999">User</text><ellipse cx="40.5" cy="13" fill="#F8F8F8" rx="8" ry="8" style="stroke: #383838; stroke-width: 2.0;"/><path d="M40.5,21 L40.5,48 M27.5,29 L53.5,29 M40.5,48 L27.5,63 M40.5,48 L53.5,63 " fill="#F8F8F8" style="stroke: #383838; stroke-width: 2.0;"/><text fill="#000000" font-family="sans-serif" font-size="14" lengthAdjust="spacingAndGlyphs" textLength="29" x="23" y="770.0001">User</text><ellipse cx="40.5" cy="782.8001" fill="#F8F8F8" rx="8" ry="8" style="stroke: #383838; stroke-width: 2.0;"/><path d="M40.5,790.8001 L40.5,817.8001 M27.5,798.8001 L53.5,798.8001 M40.5,817.8001 L27.5,832.8001 M40.5,817.8001 L53.5,832.8001 " fill="#F8F8F8" style="stroke: #383838; stroke-width: 2.0;"/><rect fill="#F8F8F8" height="47.5999" style="stroke: #383838; stroke-width: 1.5;" width="81" x="68" y="34.2001"/><text fill="#000000" font-family="sans-serif" font-size="14" font-style="italic" lengthAdjust="spacingAndGlyphs" textLength="67" x="75" y="55.2001">«Directive»</text><text fill="#000000" font-family="sans-serif" font-size="14" lengthAdjust="spacingAndGlyphs" textLength="39" x="89" y="72">Panes</text><rect fill="#F8F8F8" height="47.5999" style="stroke: #383838; stroke-width: 1.5;" width="81" x="68" y="756.0002"/><text fill="#000000" font-family="sans-serif" font-size="14" font-style="italic" lengthAdjust="spacingAndGlyphs" textLength="67" x="75" y="777.0002">«Directive»</text><text fill="#000000" font-family="sans-serif" font-size="14" lengthAdjust="spacingAndGlyphs" textLength="39" x="89" y="793.8001">Panes</text><rect fill="#F8F8F8" height="47.5999" style="stroke: #383838; stroke-width: 1.5;" width="87" x="232" y="34.2001"/><text fill="#000000" font-family="sans-serif" font-size="14" font-style="italic" lengthAdjust="spacingAndGlyphs" textLength="67" x="242" y="55.2001">«Directive»</text><text fill="#000000" font-family="sans-serif" font-size="14" lengthAdjust="spacingAndGlyphs" textLength="73" x="239" y="72">ActionPanel</text><rect fill="#F8F8F8" height="47.5999" style="stroke: #383838; stroke-width: 1.5;" width="87" x="232" y="756.0002"/><text fill="#000000" font-family="sans-serif" font-size="14" font-style="italic" lengthAdjust="spacingAndGlyphs" textLength="67" x="242" y="777.0002">«Directive»</text><text fill="#000000" font-family="sans-serif" font-size="14" lengthAdjust="spacingAndGlyphs" textLength="73" x="239" y="793.8001">ActionPanel</text><rect fill="none" height="291.8001" style="stroke: #000000; stroke-width: 2.0;" width="355.5" x="13" y="99.7999"/><polygon fill="#EEEEEE" points="13,99.7999,214,99.7999,214,106.7999,204,116.7999,13,116.7999,13,99.7999" style="stroke: #000000; stroke-width: 2.0;"/><text fill="#000000" font-family="sans-serif" font-size="13" font-weight="bold" lengthAdjust="spacingAndGlyphs" textLength="156" x="28" y="113.7999">Create a new Spiral view</text><polygon fill="#383838" points="263.5,134.3999,273.5,138.3999,263.5,142.3999,267.5,138.3999" style="stroke: #383838; stroke-width: 1.0;"/><line style="stroke: #383838; stroke-width: 1.0;" x1="40.5" x2="269.5" y1="138.3999" y2="138.3999"/><text fill="#000000" font-family="sans-serif" font-size="13" lengthAdjust="spacingAndGlyphs" textLength="211" x="47.5" y="134.4">chooseSpiralAttribute('chooseSpiral')</text><polygon fill="#383838" points="119.5,164,109.5,168,119.5,172,115.5,168" style="stroke: #383838; stroke-width: 1.0;"/><line style="stroke: #383838; stroke-width: 1.0;" x1="113.5" x2="274.5" y1="168" y2="168"/><text fill="#000000" font-family="sans-serif" font-size="13" lengthAdjust="spacingAndGlyphs" textLength="109" x="125.5" y="164">updateActionPanel</text><polygon fill="#383838" points="263.5,193.6,273.5,197.6,263.5,201.6,267.5,197.6" style="stroke: #383838; stroke-width: 1.0;"/><line style="stroke: #383838; stroke-width: 1.0;" x1="40.5" x2="269.5" y1="197.6" y2="197.6"/><text fill="#000000" font-family="sans-serif" font-size="13" lengthAdjust="spacingAndGlyphs" textLength="131" x="47.5" y="193.6">callWithSavedAttribute</text><line style="stroke: #383838; stroke-width: 1.0;" x1="275.5" x2="317.5" y1="227.8" y2="227.8"/><line style="stroke: #383838; stroke-width: 1.0;" x1="317.5" x2="317.5" y1="227.8" y2="240.8"/><line style="stroke: #383838; stroke-width: 1.0;" x1="276.5" x2="317.5" y1="240.8" y2="240.8"/><polygon fill="#383838" points="286.5,236.8,276.5,240.8,286.5,244.8,282.5,240.8" style="stroke: #383838; stroke-width: 1.0;"/><text fill="#000000" font-family="sans-serif" font-size="13" lengthAdjust="spacingAndGlyphs" textLength="74" x="282.5" y="223.2">chooseSpiral</text><polygon fill="#383838" points="119.5,265.8,109.5,269.8,119.5,273.8,115.5,269.8" style="stroke: #383838; stroke-width: 1.0;"/><line style="stroke: #383838; stroke-width: 1.0;" x1="113.5" x2="274.5" y1="269.8" y2="269.8"/><text fill="#000000" font-family="sans-serif" font-size="13" lengthAdjust="spacingAndGlyphs" textLength="88" x="125.5" y="265.8">makePaneSplit</text><line style="stroke: #383838; stroke-width: 1.0;" x1="108.5" x2="150.5" y1="300" y2="300"/><line style="stroke: #383838; stroke-width: 1.0;" x1="150.5" x2="150.5" y1="300" y2="313"/><line style="stroke: #383838; stroke-width: 1.0;" x1="109.5" x2="150.5" y1="313" y2="313"/><polygon fill="#383838" points="119.5,309,109.5,313,119.5,317,115.5,313" style="stroke: #383838; stroke-width: 1.0;"/><text fill="#000000" font-family="sans-serif" font-size="13" lengthAdjust="spacingAndGlyphs" textLength="74" x="115.5" y="295.4">paneColapse</text><line style="stroke: #383838; stroke-width: 1.0;" x1="108.5" x2="150.5" y1="342.6" y2="342.6"/><line style="stroke: #383838; stroke-width: 1.0;" x1="150.5" x2="150.5" y1="342.6" y2="355.6"/><line style="stroke: #383838; stroke-width: 1.0;" x1="109.5" x2="150.5" y1="355.6" y2="355.6"/><polygon fill="#383838" points="119.5,351.6,109.5,355.6,119.5,359.6,115.5,355.6" style="stroke: #383838; stroke-width: 1.0;"/><text fill="#000000" font-family="sans-serif" font-size="13" lengthAdjust="spacingAndGlyphs" textLength="77" x="115.5" y="338">updateLayout</text><rect fill="none" height="334.4001" style="stroke: #000000; stroke-width: 2.0;" width="472.5" x="13" y="405.6"/><polygon fill="#EEEEEE" points="13,405.6,227,405.6,227,412.6,217,422.6,13,422.6,13,405.6" style="stroke: #000000; stroke-width: 2.0;"/><text fill="#000000" font-family="sans-serif" font-size="13" font-weight="bold" lengthAdjust="spacingAndGlyphs" textLength="169" x="28" y="419.6">Add Spiral to existing view</text><polygon fill="#383838" points="263.5,440.2001,273.5,444.2001,263.5,448.2001,267.5,444.2001" style="stroke: #383838; stroke-width: 1.0;"/><line style="stroke: #383838; stroke-width: 1.0;" x1="40.5" x2="269.5" y1="444.2001" y2="444.2001"/><text fill="#000000" font-family="sans-serif" font-size="13" lengthAdjust="spacingAndGlyphs" textLength="97" x="47.5" y="440.2001">chooseAddSpiral</text><line style="stroke: #383838; stroke-width: 1.0;" x1="275.5" x2="317.5" y1="474.4001" y2="474.4001"/><line style="stroke: #383838; stroke-width: 1.0;" x1="317.5" x2="317.5" y1="474.4001" y2="487.4001"/><line style="stroke: #383838; stroke-width: 1.0;" x1="276.5" x2="317.5" y1="487.4001" y2="487.4001"/><polygon fill="#383838" points="286.5,483.4001,276.5,487.4001,286.5,491.4001,282.5,487.4001" style="stroke: #383838; stroke-width: 1.0;"/><text fill="#000000" font-family="sans-serif" font-size="13" lengthAdjust="spacingAndGlyphs" textLength="191" x="282.5" y="469.8001">chooseSpiralAttribute('addSpiral')</text><polygon fill="#383838" points="119.5,512.4001,109.5,516.4001,119.5,520.4001,115.5,516.4001" style="stroke: #383838; stroke-width: 1.0;"/><line style="stroke: #383838; stroke-width: 1.0;" x1="113.5" x2="274.5" y1="516.4001" y2="516.4001"/><text fill="#000000" font-family="sans-serif" font-size="13" lengthAdjust="spacingAndGlyphs" textLength="109" x="125.5" y="512.4001">updateActionPanel</text><polygon fill="#383838" points="263.5,542.0001,273.5,546.0001,263.5,550.0001,267.5,546.0001" style="stroke: #383838; stroke-width: 1.0;"/><line style="stroke: #383838; stroke-width: 1.0;" x1="40.5" x2="269.5" y1="546.0001" y2="546.0001"/><text fill="#000000" font-family="sans-serif" font-size="13" lengthAdjust="spacingAndGlyphs" textLength="131" x="47.5" y="542.0001">callWithSavedAttribute</text><polygon fill="#383838" points="119.5,571.6001,109.5,575.6001,119.5,579.6001,115.5,575.6001" style="stroke: #383838; stroke-width: 1.0;"/><line style="stroke: #383838; stroke-width: 1.0;" x1="113.5" x2="274.5" y1="575.6001" y2="575.6001"/><text fill="#000000" font-family="sans-serif" font-size="13" lengthAdjust="spacingAndGlyphs" textLength="54" x="125.5" y="571.6001">addSpiral</text><line style="stroke: #383838; stroke-width: 1.0;" x1="108.5" x2="150.5" y1="605.8001" y2="605.8001"/><line style="stroke: #383838; stroke-width: 1.0;" x1="150.5" x2="150.5" y1="605.8001" y2="618.8001"/><line style="stroke: #383838; stroke-width: 1.0;" x1="109.5" x2="150.5" y1="618.8001" y2="618.8001"/><polygon fill="#383838" points="119.5,614.8001,109.5,618.8001,119.5,622.8001,115.5,618.8001" style="stroke: #383838; stroke-width: 1.0;"/><text fill="#000000" font-family="sans-serif" font-size="13" lengthAdjust="spacingAndGlyphs" textLength="98" x="115.5" y="601.2001">addSpiralRoutine</text><line style="stroke: #383838; stroke-width: 1.0;" x1="108.5" x2="150.5" y1="648.4001" y2="648.4001"/><line style="stroke: #383838; stroke-width: 1.0;" x1="150.5" x2="150.5" y1="648.4001" y2="661.4001"/><line style="stroke: #383838; stroke-width: 1.0;" x1="109.5" x2="150.5" y1="661.4001" y2="661.4001"/><polygon fill="#383838" points="119.5,657.4001,109.5,661.4001,119.5,665.4001,115.5,661.4001" style="stroke: #383838; stroke-width: 1.0;"/><text fill="#000000" font-family="sans-serif" font-size="13" lengthAdjust="spacingAndGlyphs" textLength="82" x="115.5" y="643.8001">paneMaximize</text><line style="stroke: #383838; stroke-width: 1.0;" x1="108.5" x2="150.5" y1="691.0002" y2="691.0002"/><line style="stroke: #383838; stroke-width: 1.0;" x1="150.5" x2="150.5" y1="691.0002" y2="704.0002"/><line style="stroke: #383838; stroke-width: 1.0;" x1="109.5" x2="150.5" y1="704.0002" y2="704.0002"/><polygon fill="#383838" points="119.5,700.0002,109.5,704.0002,119.5,708.0002,115.5,704.0002" style="stroke: #383838; stroke-width: 1.0;"/><text fill="#000000" font-family="sans-serif" font-size="13" lengthAdjust="spacingAndGlyphs" textLength="77" x="115.5" y="686.4002">updateLayout</text></g></svg>