<?xml version="1.0" encoding="UTF-8" standalone="yes"?><svg xmlns="http://www.w3.org/2000/svg" xmlns:xlink="http://www.w3.org/1999/xlink" height="575px" style="width:693px;height:575px;" version="1.1" viewBox="0 0 693 575" width="693px"><defs/><g><rect fill="#FFFFFF" height="155.0001" style="stroke: #000000; stroke-width: 2.0;" width="679" x="13" y="99.7999"/><rect fill="#FFFFFF" height="212.6001" style="stroke: #000000; stroke-width: 2.0;" width="634" x="13" y="268.8"/><line style="stroke: #383838; stroke-width: 1.0;" x1="40" x2="40" y1="82.7999" y2="423.8001"/><line style="stroke: #383838; stroke-width: 1.0; stroke-dasharray: 1.0,4.0;" x1="40" x2="40" y1="423.8001" y2="451.8001"/><line style="stroke: #383838; stroke-width: 1.0;" x1="40" x2="40" y1="451.8001" y2="498.4001"/><line style="stroke: #383838; stroke-width: 1.0;" x1="99" x2="99" y1="82.7999" y2="423.8001"/><line style="stroke: #383838; stroke-width: 1.0; stroke-dasharray: 1.0,4.0;" x1="99" x2="99" y1="423.8001" y2="451.8001"/><line style="stroke: #383838; stroke-width: 1.0;" x1="99" x2="99" y1="451.8001" y2="498.4001"/><line style="stroke: #383838; stroke-width: 1.0;" x1="232" x2="232" y1="82.7999" y2="423.8001"/><line style="stroke: #383838; stroke-width: 1.0; stroke-dasharray: 1.0,4.0;" x1="232" x2="232" y1="423.8001" y2="451.8001"/><line style="stroke: #383838; stroke-width: 1.0;" x1="232" x2="232" y1="451.8001" y2="498.4001"/><line style="stroke: #383838; stroke-width: 1.0;" x1="335" x2="335" y1="82.7999" y2="423.8001"/><line style="stroke: #383838; stroke-width: 1.0; stroke-dasharray: 1.0,4.0;" x1="335" x2="335" y1="423.8001" y2="451.8001"/><line style="stroke: #383838; stroke-width: 1.0;" x1="335" x2="335" y1="451.8001" y2="498.4001"/><line style="stroke: #383838; stroke-width: 1.0;" x1="468.5" x2="468.5" y1="82.7999" y2="423.8001"/><line style="stroke: #383838; stroke-width: 1.0; stroke-dasharray: 1.0,4.0;" x1="468.5" x2="468.5" y1="423.8001" y2="451.8001"/><line style="stroke: #383838; stroke-width: 1.0;" x1="468.5" x2="468.5" y1="451.8001" y2="498.4001"/><text fill="#000000" font-family="sans-serif" font-size="14" lengthAdjust="spacingAndGlyphs" textLength="29" x="23" y="79.9999">User</text><ellipse cx="40.5" cy="13" fill="#F8F8F8" rx="8" ry="8" style="stroke: #383838; stroke-width: 2.0;"/><path d="M40.5,21 L40.5,48 M27.5,29 L53.5,29 M40.5,48 L27.5,63 M40.5,48 L53.5,63 " fill="#F8F8F8" style="stroke: #383838; stroke-width: 2.0;"/><text fill="#000000" font-family="sans-serif" font-size="14" lengthAdjust="spacingAndGlyphs" textLength="29" x="23" y="511.4">User</text><ellipse cx="40.5" cy="524.2" fill="#F8F8F8" rx="8" ry="8" style="stroke: #383838; stroke-width: 2.0;"/><path d="M40.5,532.2 L40.5,559.2 M27.5,540.2 L53.5,540.2 M40.5,559.2 L27.5,574.2 M40.5,559.2 L53.5,574.2 " fill="#F8F8F8" style="stroke: #383838; stroke-width: 2.0;"/><rect fill="#F8F8F8" height="30.7999" style="stroke: #383838; stroke-width: 1.5;" width="63" x="68" y="51"/><text fill="#000000" font-family="sans-serif" font-size="14" lengthAdjust="spacingAndGlyphs" textLength="49" x="75" y="71.9999">Angular</text><rect fill="#F8F8F8" height="30.7999" style="stroke: #383838; stroke-width: 1.5;" width="63" x="68" y="497.4001"/><text fill="#000000" font-family="sans-serif" font-size="14" lengthAdjust="spacingAndGlyphs" textLength="49" x="75" y="518.4">Angular</text><rect fill="#F8F8F8" height="47.5999" style="stroke: #383838; stroke-width: 1.5;" width="81" x="192" y="34.2001"/><text fill="#000000" font-family="sans-serif" font-size="14" font-style="italic" lengthAdjust="spacingAndGlyphs" textLength="67" x="199" y="55.2001">«Directive»</text><text fill="#000000" font-family="sans-serif" font-size="14" lengthAdjust="spacingAndGlyphs" textLength="39" x="213" y="72">Panes</text><rect fill="#F8F8F8" height="47.5999" style="stroke: #383838; stroke-width: 1.5;" width="81" x="192" y="497.4001"/><text fill="#000000" font-family="sans-serif" font-size="14" font-style="italic" lengthAdjust="spacingAndGlyphs" textLength="67" x="199" y="518.4001">«Directive»</text><text fill="#000000" font-family="sans-serif" font-size="14" lengthAdjust="spacingAndGlyphs" textLength="39" x="213" y="535.2">Panes</text><rect fill="#F8F8F8" height="47.5999" style="stroke: #383838; stroke-width: 1.5;" width="104" x="283" y="34.2001"/><text fill="#000000" font-family="sans-serif" font-size="14" font-style="italic" lengthAdjust="spacingAndGlyphs" textLength="59" x="305.5" y="55.2001">«Factory»</text><text fill="#000000" font-family="sans-serif" font-size="14" lengthAdjust="spacingAndGlyphs" textLength="90" x="290" y="72">...Visualization</text><rect fill="#F8F8F8" height="47.5999" style="stroke: #383838; stroke-width: 1.5;" width="104" x="283" y="497.4001"/><text fill="#000000" font-family="sans-serif" font-size="14" font-style="italic" lengthAdjust="spacingAndGlyphs" textLength="59" x="305.5" y="518.4001">«Factory»</text><text fill="#000000" font-family="sans-serif" font-size="14" lengthAdjust="spacingAndGlyphs" textLength="90" x="290" y="535.2">...Visualization</text><rect fill="#F8F8F8" height="47.5999" style="stroke: #383838; stroke-width: 1.5;" width="73" x="432.5" y="34.2001"/><text fill="#000000" font-family="sans-serif" font-size="14" font-style="italic" lengthAdjust="spacingAndGlyphs" textLength="59" x="439.5" y="55.2001">«Factory»</text><text fill="#000000" font-family="sans-serif" font-size="14" lengthAdjust="spacingAndGlyphs" textLength="37" x="450.5" y="72">Filters</text><rect fill="#F8F8F8" height="47.5999" style="stroke: #383838; stroke-width: 1.5;" width="73" x="432.5" y="497.4001"/><text fill="#000000" font-family="sans-serif" font-size="14" font-style="italic" lengthAdjust="spacingAndGlyphs" textLength="59" x="439.5" y="518.4001">«Factory»</text><text fill="#000000" font-family="sans-serif" font-size="14" lengthAdjust="spacingAndGlyphs" textLength="37" x="450.5" y="535.2">Filters</text><rect fill="none" height="155.0001" style="stroke: #000000; stroke-width: 2.0;" width="679" x="13" y="99.7999"/><polygon fill="#EEEEEE" points="13,99.7999,133,99.7999,133,106.7999,123,116.7999,13,116.7999,13,99.7999" style="stroke: #000000; stroke-width: 2.0;"/><text fill="#000000" font-family="sans-serif" font-size="13" font-weight="bold" lengthAdjust="spacingAndGlyphs" textLength="75" x="28" y="113.7999">brush event</text><polygon fill="#383838" points="457,134.3999,467,138.3999,457,142.3999,461,138.3999" style="stroke: #383838; stroke-width: 1.0;"/><line style="stroke: #383838; stroke-width: 1.0;" x1="40.5" x2="463" y1="138.3999" y2="138.3999"/><text fill="#000000" font-family="sans-serif" font-size="13" lengthAdjust="spacingAndGlyphs" textLength="45" x="47.5" y="134.4">brushed</text><line style="stroke: #383838; stroke-width: 1.0;" x1="469" x2="511" y1="157.3" y2="157.3"/><line style="stroke: #383838; stroke-width: 1.0;" x1="511" x2="511" y1="157.3" y2="170.3"/><line style="stroke: #383838; stroke-width: 1.0;" x1="470" x2="511" y1="170.3" y2="170.3"/><polygon fill="#383838" points="480,166.3,470,170.3,480,174.3,476,170.3" style="stroke: #383838; stroke-width: 1.0;"/><polygon fill="#ECECEC" points="519,152,519,177,677,177,677,162,667,152,519,152" style="stroke: #383838; stroke-width: 1.0;"/><line style="stroke: #383838; stroke-width: 1.0;" x1="667" x2="667" y1="152" y2="162"/><line style="stroke: #383838; stroke-width: 1.0;" x1="677" x2="667" y1="162" y2="162"/><text fill="#000000" font-family="sans-serif" font-size="13" lengthAdjust="spacingAndGlyphs" textLength="137" x="525" y="170">Updates activatedFilters</text><line style="stroke: #383838; stroke-width: 1.0;" x1="469" x2="511" y1="204.2" y2="204.2"/><line style="stroke: #383838; stroke-width: 1.0;" x1="511" x2="511" y1="204.2" y2="217.2"/><line style="stroke: #383838; stroke-width: 1.0;" x1="470" x2="511" y1="217.2" y2="217.2"/><polygon fill="#383838" points="480,213.2,470,217.2,480,221.2,476,217.2" style="stroke: #383838; stroke-width: 1.0;"/><text fill="#000000" font-family="sans-serif" font-size="13" lengthAdjust="spacingAndGlyphs" textLength="104" x="476" y="199.6">dispatch(observer)</text><polygon fill="#383838" points="346,242.2,336,246.2,346,250.2,342,246.2" style="stroke: #383838; stroke-width: 1.0;"/><line style="stroke: #383838; stroke-width: 1.0;" x1="340" x2="468" y1="246.2" y2="246.2"/><text fill="#000000" font-family="sans-serif" font-size="13" lengthAdjust="spacingAndGlyphs" textLength="110" x="352" y="242.2">populateWithFilters</text><rect fill="none" height="212.6001" style="stroke: #000000; stroke-width: 2.0;" width="634" x="13" y="268.8"/><polygon fill="#EEEEEE" points="13,268.8,116,268.8,116,275.8,106,285.8,13,285.8,13,268.8" style="stroke: #000000; stroke-width: 2.0;"/><text fill="#000000" font-family="sans-serif" font-size="13" font-weight="bold" lengthAdjust="spacingAndGlyphs" textLength="58" x="28" y="282.8">list event</text><polygon fill="#383838" points="220.5,303.4,230.5,307.4,220.5,311.4,224.5,307.4" style="stroke: #383838; stroke-width: 1.0;"/><line style="stroke: #383838; stroke-width: 1.0;" x1="40.5" x2="226.5" y1="307.4" y2="307.4"/><text fill="#000000" font-family="sans-serif" font-size="13" lengthAdjust="spacingAndGlyphs" textLength="64" x="47.5" y="303.4">checkFilter</text><polygon fill="#383838" points="457,336,467,340,457,344,461,340" style="stroke: #383838; stroke-width: 1.0;"/><line style="stroke: #383838; stroke-width: 1.0;" x1="232.5" x2="463" y1="340" y2="340"/><text fill="#000000" font-family="sans-serif" font-size="13" lengthAdjust="spacingAndGlyphs" textLength="106" x="239.5" y="336">setActivatedFilters</text><polygon fill="#ECECEC" points="474,321,474,346,632,346,632,331,622,321,474,321" style="stroke: #383838; stroke-width: 1.0;"/><line style="stroke: #383838; stroke-width: 1.0;" x1="622" x2="622" y1="321" y2="331"/><line style="stroke: #383838; stroke-width: 1.0;" x1="632" x2="622" y1="331" y2="331"/><text fill="#000000" font-family="sans-serif" font-size="13" lengthAdjust="spacingAndGlyphs" textLength="137" x="480" y="339">Updates activatedFilters</text><line style="stroke: #383838; stroke-width: 1.0;" x1="469" x2="511" y1="373.2001" y2="373.2001"/><line style="stroke: #383838; stroke-width: 1.0;" x1="511" x2="511" y1="373.2001" y2="386.2001"/><line style="stroke: #383838; stroke-width: 1.0;" x1="470" x2="511" y1="386.2001" y2="386.2001"/><polygon fill="#383838" points="480,382.2001,470,386.2001,480,390.2001,476,386.2001" style="stroke: #383838; stroke-width: 1.0;"/><text fill="#000000" font-family="sans-serif" font-size="13" lengthAdjust="spacingAndGlyphs" textLength="104" x="476" y="368.6">dispatch(observer)</text><polygon fill="#383838" points="346,411.2001,336,415.2001,346,419.2001,342,415.2001" style="stroke: #383838; stroke-width: 1.0;"/><line style="stroke: #383838; stroke-width: 1.0;" x1="340" x2="468" y1="415.2001" y2="415.2001"/><text fill="#000000" font-family="sans-serif" font-size="13" lengthAdjust="spacingAndGlyphs" textLength="110" x="352" y="411.2001">populateWithFilters</text><polygon fill="#383838" points="220.5,468.8001,230.5,472.8001,220.5,476.8001,224.5,472.8001" style="stroke: #383838; stroke-width: 1.0;"/><line style="stroke: #383838; stroke-width: 1.0;" x1="99.5" x2="226.5" y1="472.8001" y2="472.8001"/><text fill="#000000" font-family="sans-serif" font-size="13" lengthAdjust="spacingAndGlyphs" textLength="109" x="106.5" y="468.8001">isListInputSelected</text></g></svg>