<?xml version="1.0" encoding="UTF-8" standalone="no"?>
<!-- Created with Inkscape (http://www.inkscape.org/) -->

<svg
   xmlns:dc="http://purl.org/dc/elements/1.1/"
   xmlns:cc="http://creativecommons.org/ns#"
   xmlns:rdf="http://www.w3.org/1999/02/22-rdf-syntax-ns#"
   xmlns:svg="http://www.w3.org/2000/svg"
   xmlns="http://www.w3.org/2000/svg"
   xmlns:sodipodi="http://sodipodi.sourceforge.net/DTD/sodipodi-0.dtd"
   xmlns:inkscape="http://www.inkscape.org/namespaces/inkscape"
   id="svg7384"
   width="22"
   sodipodi:docname="config.svg"
   height="22"
   version="1.1"
   inkscape:version="0.91 r13725">
  <metadata
     id="metadata90">
    <rdf:RDF>
      <cc:Work
         rdf:about="">
        <dc:format>image/svg+xml</dc:format>
        <dc:type
           rdf:resource="http://purl.org/dc/dcmitype/StillImage" />
        <dc:title>Gnome Symbolic Icon Theme</dc:title>
      </cc:Work>
    </rdf:RDF>
  </metadata>
  <sodipodi:namedview
     inkscape:window-height="713"
     inkscape:snap-bbox-midpoints="false"
     inkscape:snap-grids="true"
     inkscape:object-paths="false"
     pagecolor="#555753"
     inkscape:zoom="22.627417"
     inkscape:current-layer="layer15"
     borderopacity="1"
     inkscape:snap-others="false"
     inkscape:window-x="138"
     inkscape:window-y="27"
     inkscape:snap-to-guides="true"
     gridtolerance="10"
     id="namedview88"
     inkscape:snap-global="true"
     inkscape:cx="11.305315"
     inkscape:cy="10.599277"
     bordercolor="#666666"
     inkscape:window-width="1226"
     inkscape:snap-bbox="true"
     guidetolerance="10"
     showguides="true"
     showborder="true"
     inkscape:guide-bbox="true"
     inkscape:object-nodes="false"
     inkscape:pageopacity="1"
     inkscape:window-maximized="0"
     objecttolerance="10"
     showgrid="true"
     inkscape:snap-nodes="true"
     inkscape:bbox-paths="false"
     inkscape:pageshadow="2">
    <inkscape:grid
       visible="true"
       spacingx="1px"
       spacingy="1px"
       id="grid4866"
       type="xygrid"
       empspacing="2"
       enabled="true"
       snapvisiblegridlinesonly="true" />
  </sodipodi:namedview>
  <title
     id="title9167">Gnome Symbolic Icon Theme</title>
  <defs
     id="defs7386" />
  <g
     inkscape:label="status"
     id="layer9"
     style="display:inline"
     transform="translate(-441.0002,-394.99999)"
     inkscape:groupmode="layer" />
  <g
     inkscape:label="devices"
     id="layer10"
     transform="translate(-441.0002,-394.99999)"
     inkscape:groupmode="layer" />
  <g
     inkscape:label="apps"
     id="layer11"
     transform="translate(-441.0002,-394.99999)"
     inkscape:groupmode="layer" />
  <g
     inkscape:label="places"
     id="layer13"
     transform="translate(-441.0002,-394.99999)"
     inkscape:groupmode="layer" />
  <g
     inkscape:label="mimetypes"
     id="layer14"
     transform="translate(-441.0002,-394.99999)"
     inkscape:groupmode="layer" />
  <g
     inkscape:label="emblems"
     id="layer15"
     style="display:inline"
     transform="translate(-441.0002,-394.99999)"
     inkscape:groupmode="layer">
    <path
       id="path35543-6-4"
       d="m 452.03886,395.10671 c -0.34378,0 -0.6868,0.0176 -1.02247,0.0487 l -0.63295,3.26215 c -0.5211,0.1142 -1.03306,0.27404 -1.50935,0.48688 l -2.38575,-2.28836 c -0.6055,0.35852 -1.13261,0.80096 -1.65542,1.2659 l 1.41197,2.97002 c -0.34653,0.38793 -0.66099,0.81407 -0.92507,1.2659 l -3.26215,-0.4382 c -0.27689,0.63688 -0.481,1.3031 -0.63296,1.99624 l 2.87264,1.55804 c -0.0267,0.2619 -0.0487,0.5101 -0.0487,0.77902 0,0.26892 0.0221,0.51712 0.0487,0.77902 l -2.87264,1.55804 c 0.15192,0.69314 0.35607,1.35936 0.63296,1.99624 l 3.26215,-0.4382 c 0.26408,0.45183 0.57854,0.87797 0.92507,1.2659 l -1.41197,2.97002 c 0.52281,0.46494 1.04992,0.90738 1.65542,1.2659 l 2.38575,-2.28836 c 0.47629,0.21284 0.98825,0.37261 1.50935,0.48688 l 0.63295,3.26215 c 0.33567,0.0312 0.67869,0.0487 1.02247,0.0487 0.34378,0 0.6868,-0.0176 1.02246,-0.0487 l 0.63295,-3.26215 c 0.52111,-0.1142 1.03306,-0.27404 1.50936,-0.48688 l 2.38574,2.28836 c 0.6055,-0.35852 1.13262,-0.80096 1.65542,-1.2659 l -1.41197,-2.97002 c 0.34654,-0.38793 0.661,-0.81407 0.92508,-1.2659 l 3.26215,0.4382 c 0.2769,-0.63688 0.48099,-1.3031 0.63295,-1.99624 l -2.87263,-1.55804 c 0.0267,-0.2619 0.0487,-0.5101 0.0487,-0.77902 0,-0.26892 -0.0221,-0.51712 -0.0487,-0.77902 l 2.87263,-1.55804 c -0.1519,-0.69314 -0.35605,-1.35936 -0.63295,-1.99624 l -3.26215,0.4382 c -0.26408,-0.45183 -0.57854,-0.87797 -0.92508,-1.2659 l 1.41197,-2.97002 c -0.5228,-0.46494 -1.04992,-0.90738 -1.65542,-1.2659 l -2.38574,2.28836 c -0.4763,-0.21284 -0.98825,-0.37261 -1.50936,-0.48688 l -0.63295,-3.26215 c -0.33566,-0.0312 -0.67868,-0.0487 -1.02246,-0.0487 z m 0,6.23216 c 2.58144,0 4.67412,2.09268 4.67412,4.67411 0,2.58144 -2.09268,4.67412 -4.67412,4.67412 -2.58144,0 -4.67412,-2.09268 -4.67412,-4.67412 0,-2.58143 2.09268,-4.67411 4.67412,-4.67411 z"
       style="color:#000000;display:inline;overflow:visible;visibility:visible;fill:#ffffff;fill-opacity:1;fill-rule:nonzero;stroke:none;marker:none;enable-background:accumulate"
       inkscape:connector-curvature="0"
       sodipodi:nodetypes="sccccccccccsccccccccccsccccccccccsccccccccccssssss" />
  </g>
  <g
     inkscape:label="emotes"
     id="g71291"
     style="display:inline"
     transform="translate(-441.0002,-394.99999)"
     inkscape:groupmode="layer" />
  <g
     inkscape:label="categories"
     id="g4953"
     style="display:inline"
     transform="translate(-441.0002,-394.99999)"
     inkscape:groupmode="layer" />
  <g
     inkscape:label="actions"
     id="layer12"
     style="display:inline"
     transform="translate(-441.0002,-394.99999)"
     inkscape:groupmode="layer" />
</svg>
