<?xml version="1.0" encoding="UTF-8" standalone="no"?>
<!-- Created with Inkscape (http://www.inkscape.org/) -->

<svg
   xmlns:dc="http://purl.org/dc/elements/1.1/"
   xmlns:cc="http://creativecommons.org/ns#"
   xmlns:rdf="http://www.w3.org/1999/02/22-rdf-syntax-ns#"
   xmlns:svg="http://www.w3.org/2000/svg"
   xmlns="http://www.w3.org/2000/svg"
   xmlns:sodipodi="http://sodipodi.sourceforge.net/DTD/sodipodi-0.dtd"
   xmlns:inkscape="http://www.inkscape.org/namespaces/inkscape"
   width="22"
   height="22"
   viewBox="0 0 22 22"
   id="svg4307"
   version="1.1"
   inkscape:version="0.91 r13725"
   sodipodi:docname="eye.svg">
  <defs
     id="defs4309" />
  <sodipodi:namedview
     id="base"
     pagecolor="#c8c8c8"
     bordercolor="#666666"
     borderopacity="1.0"
     inkscape:pageopacity="0.0"
     inkscape:pageshadow="2"
     inkscape:zoom="26.105264"
     inkscape:cx="8.2178139"
     inkscape:cy="12.154907"
     inkscape:document-units="px"
     inkscape:current-layer="layer1"
     showgrid="true"
     units="px"
     inkscape:showpageshadow="false"
     inkscape:window-width="1366"
     inkscape:window-height="713"
     inkscape:window-x="0"
     inkscape:window-y="27"
     inkscape:window-maximized="1"
     showborder="true"
     inkscape:snap-bbox="false"
     inkscape:snap-global="true"
     inkscape:bbox-paths="false"
     inkscape:bbox-nodes="false"
     inkscape:snap-bbox-edge-midpoints="false"
     inkscape:snap-bbox-midpoints="false"
     inkscape:object-nodes="true">
    <inkscape:grid
       type="xygrid"
       id="grid4887" />
  </sodipodi:namedview>
  <metadata
     id="metadata4312">
    <rdf:RDF>
      <cc:Work
         rdf:about="">
        <dc:format>image/svg+xml</dc:format>
        <dc:type
           rdf:resource="http://purl.org/dc/dcmitype/StillImage" />
        <dc:title />
      </cc:Work>
    </rdf:RDF>
  </metadata>
  <g
     inkscape:label="Layer 1"
     inkscape:groupmode="layer"
     id="layer1"
     transform="translate(0,-1030.3622)">
    <path
       style="fill:#ffffff;fill-opacity:1"
       id="path4"
       d="m 11,1033.7774 c -4.1250008,0 -8.9375017,2.7499 -11,8.2499 2.0624983,4.125 6.1874988,6.875 11,6.875 4.812501,0 8.937501,-2.75 11,-6.875 -2.062499,-5.5 -6.874999,-8.2499 -11,-8.2499 z m 0,13.7499 c -4.1250008,0 -7.5624984,-2.7499 -8.2499986,-5.5 0.6875002,-2.75 4.1249978,-5.5 8.2499986,-5.5 4.125001,0 7.562498,2.75 8.250001,5.5 -0.687503,2.7501 -4.125,5.5 -8.250001,5.5 z m 0,-9.625 c -0.429687,0 -0.816407,0.087 -1.2031231,0.1935 C 10.505859,1038.418 11,1039.127 11,1039.9649 c 0,1.1386 -0.923828,2.0624 -2.0624986,2.0624 -0.8378915,0 -1.5468773,-0.494 -1.8691413,-1.2032 -0.1074267,0.3869 -0.1933609,0.7736 -0.1933609,1.2032 0,2.2775 1.8476558,4.125 4.1250008,4.125 2.277344,0 4.125001,-1.8475 4.125001,-4.125 0,-2.2772 -1.847657,-4.125 -4.125001,-4.125 z"
       inkscape:connector-curvature="0" />
  </g>
</svg>
