<?xml version="1.0" encoding="UTF-8" standalone="no"?>
<svg
   xmlns:dc="http://purl.org/dc/elements/1.1/"
   xmlns:cc="http://creativecommons.org/ns#"
   xmlns:rdf="http://www.w3.org/1999/02/22-rdf-syntax-ns#"
   xmlns:svg="http://www.w3.org/2000/svg"
   xmlns="http://www.w3.org/2000/svg"
   xmlns:sodipodi="http://sodipodi.sourceforge.net/DTD/sodipodi-0.dtd"
   xmlns:inkscape="http://www.inkscape.org/namespaces/inkscape"
   height="16"
   version="1.1"
   width="16"
   id="svg2"
   inkscape:version="0.91 r13725"
   sodipodi:docname="pin-checked.svg">
  <metadata
     id="metadata20">
    <rdf:RDF>
      <cc:Work
         rdf:about="">
        <dc:format>image/svg+xml</dc:format>
        <dc:type
           rdf:resource="http://purl.org/dc/dcmitype/StillImage" />
        <dc:title></dc:title>
      </cc:Work>
    </rdf:RDF>
  </metadata>
  <defs
     id="defs18" />
  <sodipodi:namedview
     pagecolor="#c0c0c0"
     bordercolor="#666666"
     borderopacity="1"
     objecttolerance="10"
     gridtolerance="10"
     guidetolerance="10"
     inkscape:pageopacity="0"
     inkscape:pageshadow="2"
     inkscape:window-width="1366"
     inkscape:window-height="713"
     id="namedview16"
     showgrid="true"
     inkscape:zoom="39.333333"
     inkscape:cx="7.7170114"
     inkscape:cy="6.3369453"
     inkscape:window-x="0"
     inkscape:window-y="27"
     inkscape:window-maximized="1"
     inkscape:current-layer="svg2">
    <inkscape:grid
       type="xygrid"
       id="grid4148" />
  </sodipodi:namedview>
  <g
     transform="matrix(0.79081031,0,0,0.79081031,-2.1280393,-814.10147)"
     id="g4"
     style="fill:#ffffff;fill-opacity:1">
    <g
       transform="matrix(0.70711,0.70711,-0.70711,0.70711,737.68,297.72)"
       id="g6"
       style="fill:#ffffff;fill-opacity:1">
      <path
         d="m 11,1028.4 0,13 1,0 6.406,0 c -0.595,-1.1 -1.416,-2.1 -2.406,-2.8 l 0,-8 c 0.616,-0.6 1.131,-1.4 1.531,-2.2 l -5.531,0 -1,0 z"
         id="path8"
         inkscape:connector-curvature="0"
         style="fill:#ffffff;fill-opacity:1" />
      <path
         d="m 11,13 0,2 0,4 0,2 1,2 0,-2 0,-6 0,-2 -1,0 z"
         transform="translate(0,1028.4)"
         id="path10"
         inkscape:connector-curvature="0"
         style="fill:#ffffff;fill-opacity:1" />
      <path
         d="m 12,13 0,2 0,4 0,2 0,2 1,-2 0,-2 0,-4 0,-2 -1,0 z"
         transform="translate(0,1028.4)"
         id="path12"
         inkscape:connector-curvature="0"
         style="fill:#ffffff;fill-opacity:1" />
      <path
         d="m 6.4688,1028.4 c 0.4006,0.8 0.915,1.6 1.5312,2.2 l 0,8 c -0.9897,0.7 -1.8113,1.7 -2.4062,2.8 l 6.4062,0 0,-13 -5.5312,0 z"
         id="path14"
         inkscape:connector-curvature="0"
         style="fill:#ffffff;fill-opacity:1" />
    </g>
  </g>
  <g
     id="g4171"
     transform="matrix(1.2478814,0,0,1.2478814,-2.7182203,-1288.5304)">
    <path
       id="rect4153"
       d="m 11,1037.3622 c 2.216,0 4,1.784 4,4 0,2.216 -1.784,4 -4,4 -2.216,0 -4,-1.784 -4,-4 0,-2.216 1.784,-4 4,-4 z"
       style="opacity:1;fill:#27ae60;fill-opacity:1;stroke:none"
       inkscape:connector-curvature="0" />
    <path
       id="path4142"
       d="m 13,1039.3622 -3,3 -1,-1 -1,1 1,1 1,1 4,-4 -1,-1 z"
       style="fill:#ffffff;fill-opacity:1;stroke:none"
       inkscape:connector-curvature="0" />
  </g>
</svg>
